<svg xmlns="http://www.w3.org/2000/svg" viewBox="0 0 64 64" width="64" height="64" role="img" aria-label="Yaal Nilam">
  <!-- ground -->
  <rect x="6" y="51" width="52" height="3" rx="1.5" fill="#5a2d1a"/>
  <!-- house -->
  <path d="M27 37 L42 24 L57 37 Z" fill="#5f6b43"/>
  <path d="M33 37 L42 30 L51 37 V51 H33 Z" fill="#93a06f"/>
  <rect x="49.5" y="27" width="4" height="10" fill="#5f6b43"/>
  <rect x="40" y="42" width="5" height="6" fill="#ffffff"/>
  <!-- palmyra palm -->
  <g fill="#5a2d1a">
    <path d="M18.6 51 L17.2 21 H20.8 L19.4 51 Z"/>
    <g>
      <ellipse cx="19" cy="19" rx="2.6" ry="9.5"/>
      <ellipse cx="19" cy="19" rx="2.6" ry="9.5" transform="rotate(38 19 19)"/>
      <ellipse cx="19" cy="19" rx="2.6" ry="9.5" transform="rotate(-38 19 19)"/>
      <ellipse cx="19" cy="19" rx="2.6" ry="9.5" transform="rotate(72 19 19)"/>
      <ellipse cx="19" cy="19" rx="2.6" ry="9.5" transform="rotate(-72 19 19)"/>
      <circle cx="19" cy="19" r="3"/>
    </g>
  </g>
</svg>
